<svg id="france" xmlns="http://www.w3.org/2000/svg" width="41.247" height="41.247" viewBox="0 0 41.247 41.247">
 <path id="Path_143" data-name="Path 143" d="M290.57,13.535l-2.407,6.673a49.787,49.787,0,0,1,0,25.544l2.407,6.672a20.625,20.625,0,0,0,0-38.889Z" transform="translate(-263.071 -12.357)" fill="#e61e25"/>
 <g id="Group_44" data-name="Group 44" transform="translate(20.566 0)">
  <path id="Path_144" data-name="Path 144" d="M243.716,7.853V1.18A20.582,20.582,0,0,0,236.84,0C240.02,0,235.611,10.78,243.716,7.853Z" transform="translate(-236.783 -0.002)" fill="#e4e4e4"/>
  <path id="Path_145" data-name="Path 145" d="M236.244,390.826a20.581,20.581,0,0,0,6.876-1.178v-6.672C235.1,382.174,236.244,390.826,236.244,390.826Z" transform="translate(-236.188 -349.579)" fill="#e4e4e4"/>
 </g>
 <path id="Path_146" data-name="Path 146" d="M0,32.7A20.628,20.628,0,0,0,13.828,52.173V13.229A20.627,20.627,0,0,0,0,32.7Z" transform="translate(0 -12.077)" fill="#3757a6"/>
 <path id="Path_147" data-name="Path 147" d="M315.8,90.167v25.544A49.781,49.781,0,0,0,315.8,90.167Z" transform="translate(-288.303 -82.316)" fill="#ef4f4e"/>
 <path id="Path_148" data-name="Path 148" d="M172.477,33.4V7.853C171.073,3.218,168.781,0,165.6,0a20.58,20.58,0,0,0-6.795,1.152V40.1a20.58,20.58,0,0,0,6.795,1.151C168.781,41.249,171.073,38.032,172.477,33.4Z" transform="translate(-144.978 -0.002)" fill="#f3f4f5"/>
</svg>
