<svg xmlns="http://www.w3.org/2000/svg" width="41.172" height="41.08" viewBox="0 0 41.172 41.08">
 <g id="hungary" transform="translate(0.261 0)">
  <circle id="Ellipse_8" data-name="Ellipse 8" cx="20.5" cy="20.5" r="20.5" transform="translate(-0.261 0.08)" fill="#fff"/>
  <path id="Path_149" data-name="Path 149" d="M326.825-301.312h-12.6a56.562,56.562,0,0,0,.01-13.56h12.62a20.421,20.421,0,0,1,1.142,6.74A20.4,20.4,0,0,1,326.825-301.312Z" transform="translate(-287.082 328.589)" fill="#efecec"/>
  <path id="Path_150" data-name="Path 150" d="M262.963-157.877h12.6l-.006.018a20.468,20.468,0,0,1-17.443,13.534C261.248-146.042,262.162-151.48,262.963-157.877Z" transform="translate(-235.824 185.154)" fill="#e63026"/>
  <path id="Path_151" data-name="Path 151" d="M258.117-472.705a20.469,20.469,0,0,1,17.457,13.574c.007.02.013.039.02.058h-12.62C262.179-465.505,261.261-470.982,258.117-472.705Z" transform="translate(-235.824 472.79)" fill="#008e56"/>
  <path id="Path_152" data-name="Path 152" d="M0-308.133a20.421,20.421,0,0,1,1.142-6.74H28.207a56.562,56.562,0,0,1-.01,13.56H1.173A20.415,20.415,0,0,1,0-308.133Z" transform="translate(-0.004 328.589)" fill="#efefef"/>
  <path id="Path_153" data-name="Path 153" d="M13.543-157.859l-.006-.018H40.561c-.8,6.4-2.768,11.835-5.9,13.552-.606.054-1.218.084-1.838.084A20.46,20.46,0,0,1,13.543-157.859Z" transform="translate(-12.368 185.154)" fill="#e73b36"/>
  <path id="Path_154" data-name="Path 154" d="M40.284-459.967H13.223c.007-.019.013-.038.02-.058a20.461,20.461,0,0,1,19.294-13.659c.62,0,1.232.03,1.837.085C37.519-471.876,39.49-466.4,40.284-459.967Z" transform="translate(-12.081 473.684)" fill="#14b36f"/>
 </g>
</svg>
