<svg id="info" xmlns="http://www.w3.org/2000/svg" width="20.351" height="20.351" viewBox="0 0 20.351 20.351">
 <path id="Path_140" data-name="Path 140" d="M236.364,107.516a.848.848,0,1,1-.848-.848A.848.848,0,0,1,236.364,107.516Zm0,0" transform="translate(-225.34 -102.428)" fill="#323b56"/>
 <path id="Path_141" data-name="Path 141" d="M204.788,200.479a.636.636,0,0,1-.636-.636v-6.572H203.3a.636.636,0,0,1,0-1.272h1.484a.636.636,0,0,1,.636.636v7.208A.636.636,0,0,1,204.788,200.479Zm0,0" transform="translate(-194.612 -184.368)" fill="#323b56"/>
 <path id="Path_142" data-name="Path 142" d="M10.175,20.351A10.175,10.175,0,1,1,20.351,10.175,10.187,10.187,0,0,1,10.175,20.351Zm0-19.079a8.9,8.9,0,1,0,8.9,8.9A8.913,8.913,0,0,0,10.175,1.272Zm0,0" fill="#323b56"/>
 <path id="Path_143" data-name="Path 143" d="M196.452,374.6h-3.816a.636.636,0,1,1,0-1.272h3.816a.636.636,0,1,1,0,1.272Zm0,0" transform="translate(-184.368 -358.493)" fill="#323b56"/>
</svg>
