<svg xmlns="http://www.w3.org/2000/svg" width="15.213" height="17.309" viewBox="0 0 15.213 17.309">
 <path id="signpost_1_" data-name="signpost (1)" d="M45.706,8.147H40.128V7.133h3.55a.507.507,0,0,0,.359-.149l2.028-2.028a.507.507,0,0,0,0-.717L44.036,2.211a.507.507,0,0,0-.359-.149h-3.55V1.521a1.521,1.521,0,0,0-3.043,0v.541H31.507A.507.507,0,0,0,31,2.569V6.626a.507.507,0,0,0,.507.507h5.578V8.147h-3.55a.507.507,0,0,0-.359.149l-2.028,2.028a.507.507,0,0,0,0,.717l2.028,2.028a.507.507,0,0,0,.359.149h3.55V16.8a.507.507,0,0,0,.507.507h2.028a.507.507,0,0,0,.507-.507V13.218h5.578a.507.507,0,0,0,.507-.507V8.654A.507.507,0,0,0,45.706,8.147ZM38.1,1.521a.507.507,0,1,1,1.014,0v.541H38.1ZM32.014,3.076H43.467L44.989,4.6,43.467,6.119H32.014ZM38.1,7.133h1.014V8.147H38.1Zm1.014,9.162H38.1V13.218h1.014ZM45.2,12.2H33.746l-1.521-1.521,1.521-1.521H45.2Z" transform="translate(-31)" fill="#323b56"/>
</svg>
