<svg id="return_1" data-name="return 1" xmlns="http://www.w3.org/2000/svg" width="21.492" height="21.492" viewBox="0 0 21.492 21.492">
 <path id="Path_404" data-name="Path 404" d="M22.612,23.059a.448.448,0,0,1-.448-.448V20.821A4.932,4.932,0,0,0,17.239,15.9H15.448a.448.448,0,1,1,0-.9h1.791a5.827,5.827,0,0,1,5.821,5.821v1.791A.448.448,0,0,1,22.612,23.059Z" transform="translate(-1.568 -1.568)" fill="#323b56"/>
 <path id="Path_405" data-name="Path 405" d="M18.582,18.269a.444.444,0,0,1-.291-.107l-3.134-2.686a.448.448,0,0,1,0-.681l3.134-2.686a.448.448,0,0,1,.582.681l-2.738,2.346,2.738,2.346a.448.448,0,0,1-.291.788Z" transform="translate(-1.568 -1.254)" fill="#323b56"/>
 <path id="Path_406" data-name="Path 406" d="M14.88,18.641H2.343A1.345,1.345,0,0,1,1,17.3V7.448A.448.448,0,0,1,1.448,7H16.671a.448.448,0,0,1,.448.448v2.74a.448.448,0,1,1-.9,0V7.9H1.9v9.4a.449.449,0,0,0,.448.448H14.88a.448.448,0,1,1,0,.9Z" transform="translate(-0.105 -0.732)" fill="#323b56"/>
 <path id="Path_407" data-name="Path 407" d="M11.925,10.9H7.448a.448.448,0,0,1,0-.9h4.477a.448.448,0,0,1,0,.9Z" transform="translate(-0.732 -1.045)" fill="#323b56"/>
 <path id="Path_408" data-name="Path 408" d="M17.462,7.477H.448A.448.448,0,0,1,0,7.03V3.448A.448.448,0,0,1,.448,3H17.462a.448.448,0,0,1,.448.448V7.03A.448.448,0,0,1,17.462,7.477ZM.9,6.582H17.014V3.9H.9Z" transform="translate(0 -0.314)" fill="#323b56"/>
 <path id="Path_409" data-name="Path 409" d="M17.462,3.582a.45.45,0,0,1-.317-.131L14.59.9H3.32L.765,3.451a.448.448,0,1,1-.633-.633L2.818.132A.444.444,0,0,1,3.134,0H14.776a.451.451,0,0,1,.317.131l2.686,2.686a.448.448,0,0,1-.317.765Z" transform="translate(0)" fill="#323b56"/>
</svg>
