<svg xmlns="http://www.w3.org/2000/svg" width="14.317" height="15.619" viewBox="0 0 14.317 15.619">
 <g id="turn-off" transform="translate(-21.331)">
  <g id="Group_76" data-name="Group 76" transform="translate(21.331)">
   <g id="Group_75" data-name="Group 75">
    <path id="Path_125" data-name="Path 125" d="M31.353,60.461a.651.651,0,1,0-.521,1.193,5.856,5.856,0,1,1-4.685,0,.651.651,0,0,0-.521-1.193,7.159,7.159,0,1,0,5.728,0Z" transform="translate(-21.331 -58.564)" fill="#f51f1f"/>
    <path id="Path_126" data-name="Path 126" d="M235.307,7.159a.651.651,0,0,0,.651-.651V.651a.651.651,0,1,0-1.3,0V6.508A.651.651,0,0,0,235.307,7.159Z" transform="translate(-228.148)" fill="#f51f1f"/>
   </g>
  </g>
 </g>
</svg>
