<svg xmlns="http://www.w3.org/2000/svg" width="16.366" height="14.541" viewBox="0 0 16.366 14.541">
 <g id="add_to_fav_icon" data-name="add to fav icon" transform="translate(-4.227 -32.536)">
  <g id="Group_9" data-name="Group 9" transform="translate(4.227 32.536)">
   <path id="Path_9" data-name="Path 9" d="M16.359,32.967a4.806,4.806,0,0,0-1.308-3.08,4.205,4.205,0,0,0-3.032-1.351,3.885,3.885,0,0,0-2.845,1.18,5.749,5.749,0,0,0-1.025,1.41,5.749,5.749,0,0,0-1.025-1.41,3.887,3.887,0,0,0-2.845-1.18,4.113,4.113,0,0,0-3,1.355A4.863,4.863,0,0,0,.006,32.967c-.143,3.025,2.239,5.054,5.843,8.126.634.54,1.289,1.1,1.986,1.708l.316.276.316-.276c.739-.647,1.432-1.235,2.1-1.8C14.141,37.966,16.5,35.963,16.359,32.967Zm-2.3,3.462a34.207,34.207,0,0,1-4.109,3.837c-.577.49-1.171.994-1.8,1.538-.585-.508-1.14-.981-1.68-1.441a34.733,34.733,0,0,1-4.156-3.894A4.9,4.9,0,0,1,.964,33.012,3.53,3.53,0,0,1,4.289,29.5h.026a3.644,3.644,0,0,1,3.2,2.519.693.693,0,0,0,1.279,0,3.644,3.644,0,0,1,3.2-2.519h.026A3.6,3.6,0,0,1,15.4,33.012,4.839,4.839,0,0,1,14.058,36.429Z" transform="translate(0 -28.536)" fill="#323b56"/>
  </g>
 </g>
</svg>
