<svg xmlns="http://www.w3.org/2000/svg" width="24.312" height="20.339" viewBox="0 0 24.312 20.339">
 <g id="people" transform="translate(0 -41.34)">
  <g id="Group_74" data-name="Group 74" transform="translate(0 41.34)">
   <path id="Path_124" data-name="Path 124" d="M18.567,47.946a1.393,1.393,0,0,0,1.05-.478A.356.356,0,0,0,19.08,47a.68.68,0,0,1-1.027,0,.356.356,0,1,0-.537.468A1.393,1.393,0,0,0,18.567,47.946ZM15.6,47.607a.356.356,0,0,0,.356-.356v-.57a.356.356,0,1,0-.712,0v.57A.356.356,0,0,0,15.6,47.607Zm5.931,0a.356.356,0,0,0,.356-.356v-.57a.356.356,0,1,0-.712,0v.57A.356.356,0,0,0,21.532,47.607Zm-8.361,6.01a.356.356,0,0,0-.5.035.68.68,0,0,1-1.027,0,.356.356,0,1,0-.537.468,1.392,1.392,0,0,0,2.1,0A.356.356,0,0,0,13.172,53.617ZM8.71,47.607a.356.356,0,0,0,.356-.356v-.57a.356.356,0,1,0-.712,0v.57A.356.356,0,0,0,8.71,47.607ZM23.83,50.544a3.975,3.975,0,0,1-.721-.679,5,5,0,0,0,1.2-3.235,5.543,5.543,0,0,0-5.744-5.29,5.543,5.543,0,0,0-5.744,5.29,4.89,4.89,0,0,0,.21,1.423,6.276,6.276,0,0,0-1.754,0,4.888,4.888,0,0,0,.21-1.423,5.542,5.542,0,0,0-5.744-5.29A5.545,5.545,0,0,0,0,46.63a5.2,5.2,0,0,0,2.571,4.407A4.7,4.7,0,0,0,.958,53.151a1.393,1.393,0,0,0,.5,1.623.356.356,0,0,0,.411-.582.68.68,0,0,1-.245-.792,4.037,4.037,0,0,1,1.661-1.989,6.168,6.168,0,0,0,3.337.447,4.9,4.9,0,0,0-.1,2.457H3.348a.356.356,0,1,0,0,.712H6.108a2.277,2.277,0,0,0,.081,1.764,2.283,2.283,0,0,0,1.106,3.687,1.389,1.389,0,0,0,1.376,1.2h5.586a.356.356,0,0,0,0-.712H8.671a.678.678,0,0,1-.635-.915A4.036,4.036,0,0,1,9.7,58.063a6.184,6.184,0,0,0,4.916,0,4.036,4.036,0,0,1,1.661,1.989.669.669,0,0,1-.023.53.682.682,0,0,1-.4.352.356.356,0,1,0,.22.677,1.4,1.4,0,0,0,.947-1.134,2.281,2.281,0,0,0,1.1-3.686,2.277,2.277,0,0,0,.081-1.764h3.848a1.39,1.39,0,0,0,1.3-1.876q-.036-.1-.076-.189a5.768,5.768,0,0,0,.728-.678,1.176,1.176,0,0,0-.175-1.739Zm-5.263-8.492a5.115,5.115,0,0,1,4.472,2.481,5.759,5.759,0,0,1-1.662-.671.531.531,0,0,0-.829.44v.2a.281.281,0,0,1-.28.28h-3.4a.281.281,0,0,1-.28-.28v-.2a.531.531,0,0,0-.829-.44,5.759,5.759,0,0,1-1.662.671A5.115,5.115,0,0,1,18.567,42.052Zm-4.83,3.292a7.819,7.819,0,0,0,2.142-.726.994.994,0,0,0,.986.879h3.4a.994.994,0,0,0,.986-.879,7.821,7.821,0,0,0,2.142.726,4.182,4.182,0,0,1,.2,1.286c0,2.959-3.054,5.148-6.221,4.449a5.649,5.649,0,0,0-3.528-2.852,4.2,4.2,0,0,1-.113-2.883ZM12.156,48.7a5.008,5.008,0,0,1,4.81,3.231,2.046,2.046,0,0,1-1.6-.825.7.7,0,0,0-.747-.324,2.664,2.664,0,0,1-2.1-.5.643.643,0,0,0-.733,0,2.664,2.664,0,0,1-2.1.5.7.7,0,0,0-.747.324,2.045,2.045,0,0,1-1.6.825,5.008,5.008,0,0,1,4.81-3.231ZM5.744,42.052a5.2,5.2,0,0,1,4.09,1.914A5.811,5.811,0,0,1,7.5,44.34a4.771,4.771,0,0,1-2.329-.688,1.246,1.246,0,0,0-1.217-.073,5.239,5.239,0,0,1-2.452.595A5.167,5.167,0,0,1,5.744,42.052ZM.712,46.63a4.2,4.2,0,0,1,.4-1.791,5.678,5.678,0,0,0,3.153-.622.523.523,0,0,1,.517.033,5.509,5.509,0,0,0,2.969.809,6.6,6.6,0,0,0,2.486-.486,4.2,4.2,0,0,1,.223,3.654,5.649,5.649,0,0,0-3.528,2.852c-3.173.7-6.221-1.5-6.221-4.449ZM7.387,59.759a1.57,1.57,0,0,1-.651-2.512.676.676,0,0,0,.105-.746,1.572,1.572,0,0,1-.158-.776A1.541,1.541,0,0,1,6.8,55.2,5.431,5.431,0,0,0,8.982,57.69,4.706,4.706,0,0,0,7.387,59.759Zm4.769-1.9a4.751,4.751,0,0,1-4.983-5.218,2.8,2.8,0,0,0,2.378-1.157,3.307,3.307,0,0,0,2.6-.584,3.307,3.307,0,0,0,2.6.583,2.816,2.816,0,0,0,2.2,1.165c.059,0,.117,0,.174-.008a4.19,4.19,0,0,1,.049.64,4.827,4.827,0,0,1-5.032,4.578Zm4.769,1.9a4.706,4.706,0,0,0-1.6-2.07A5.43,5.43,0,0,0,17.508,55.2a1.564,1.564,0,0,1-.037,1.3.675.675,0,0,0,.105.746A1.569,1.569,0,0,1,16.925,59.759Zm5.684-5.736a.669.669,0,0,1-.557.291H17.79a4.9,4.9,0,0,0-.1-2.457,6.167,6.167,0,0,0,3.337-.447A4.037,4.037,0,0,1,22.686,53.4a.669.669,0,0,1-.078.623Zm.87-2.218a5.149,5.149,0,0,1-.54.516,4.824,4.824,0,0,0-1.2-1.283,5.723,5.723,0,0,0,.873-.656,4.711,4.711,0,0,0,.8.737A.463.463,0,0,1,23.478,51.8Zm-8.357,1.172a.356.356,0,0,0-.356.356v.57a.356.356,0,1,0,.712,0v-.57A.356.356,0,0,0,15.121,52.977Zm-5.931,0a.356.356,0,0,0-.356.356v.57a.356.356,0,1,0,.712,0v-.57A.356.356,0,0,0,9.191,52.977ZM2.779,46.325a.356.356,0,0,0-.356.356v.57a.356.356,0,0,0,.712,0v-.57a.356.356,0,0,0-.356-.356Zm3.981.641a.356.356,0,0,0-.5.034.68.68,0,0,1-1.027,0,.356.356,0,0,0-.537.468,1.392,1.392,0,0,0,2.1,0,.356.356,0,0,0-.034-.5Z" transform="translate(0 -41.34)" fill="#323b56"/>
  </g>
 </g>
</svg>
