<svg xmlns="http://www.w3.org/2000/svg" width="22.555" height="21.586" viewBox="0 0 22.555 21.586">
 <g id="gift-box" transform="translate(-5.013 -15.79)">
  <path id="Path_57" data-name="Path 57" d="M20.636,68.091H8.776l10.27-6.53a.27.27,0,0,0,.083-.372l-1.018-1.6a1.63,1.63,0,0,0-2.248-.5l-1.445.919.114-.548a1.542,1.542,0,1,0-3.01-.67l-.751,3.372L8.259,61.6a1.542,1.542,0,0,0-.944,2.922l-1.548.984a1.63,1.63,0,0,0-.5,2.248l1.018,1.6a.27.27,0,0,0,.372.083l.947-.6v6.824A1.63,1.63,0,0,0,9.232,77.29H19.278a1.63,1.63,0,0,0,1.628-1.628v-7.3a.27.27,0,0,0-.27-.27Zm-4.483-8.548a1.082,1.082,0,0,1,.582-.17,1.1,1.1,0,0,1,.239.026,1.082,1.082,0,0,1,.683.479l.873,1.373-4.246,2.7-1.457-2.292Zm-4.1-.637a1,1,0,0,1,1.957.439L13.785,60.4l-2.411,1.539Zm.322,3.041,1.457,2.292L11.368,65.8,9.911,63.512Zm-5.294,1.7a1,1,0,0,1,1.064-1.517l2.178.485L7.9,64.129l-.2-.044a1,1,0,0,1-.628-.441Zm-.483,5.195-.873-1.373a1.091,1.091,0,0,1,.335-1.5l3.4-2.162,1.457,2.292Zm5.228,7.911H9.232a1.091,1.091,0,0,1-1.089-1.089V68.63h3.68Zm3.427,0H12.361V68.63h2.887Zm5.118-1.089a1.091,1.091,0,0,1-1.089,1.089h-3.49V68.63h4.579Z" transform="translate(0 -39.914)" fill="#323b56"/>
  <path id="Path_58" data-name="Path 58" d="M366.639,214.289l.129-.752a.27.27,0,0,0-.391-.284l-.675.355-.675-.355a.27.27,0,0,0-.391.284l.129.752-.546.532a.27.27,0,0,0,.149.46l.755.11.338.684a.27.27,0,0,0,.484,0l.338-.684.755-.11a.27.27,0,0,0,.149-.46Zm-.576.589a.27.27,0,0,0-.2.147l-.159.321-.159-.321a.27.27,0,0,0-.2-.147l-.355-.052.257-.25a.269.269,0,0,0,.078-.239l-.061-.353.317.167a.269.269,0,0,0,.251,0l.317-.167-.061.353a.27.27,0,0,0,.078.239l.257.25Z" transform="translate(-342.988 -188.561)" fill="#323b56"/>
  <path id="Path_59" data-name="Path 59" d="M426.923,131.63l-.741-.18-.272-.713a.27.27,0,0,0-.481-.045l-.4.649-.762.038a.27.27,0,0,0-.192.444l.494.581-.2.736a.27.27,0,0,0,.363.32l.705-.29.639.417a.27.27,0,0,0,.416-.246l-.058-.761.594-.479a.27.27,0,0,0-.106-.472Zm-.937.62a.27.27,0,0,0-.1.23l.027.357-.3-.2a.269.269,0,0,0-.25-.024l-.331.136.093-.346a.27.27,0,0,0-.055-.245l-.232-.273.358-.018a.269.269,0,0,0,.216-.128l.188-.305.128.335a.27.27,0,0,0,.188.166l.348.085Z" transform="translate(-400.171 -109.617)" fill="#323b56"/>
  <path id="Path_60" data-name="Path 60" d="M388.736,17.631l-.2.736a.27.27,0,0,0,.363.32l.705-.29.639.417a.27.27,0,0,0,.416-.246l-.058-.761.594-.479a.27.27,0,0,0-.106-.472l-.741-.18-.272-.713a.27.27,0,0,0-.481-.045l-.4.649-.762.038a.27.27,0,0,0-.192.444Zm.629-.532a.269.269,0,0,0,.216-.128l.188-.305L389.9,17a.27.27,0,0,0,.188.166l.348.085-.279.225a.27.27,0,0,0-.1.23l.027.357-.3-.2a.27.27,0,0,0-.25-.024l-.331.136.093-.346a.27.27,0,0,0-.055-.245l-.232-.273Z" transform="translate(-365.949)" fill="#323b56"/>
  <path id="Path_61" data-name="Path 61" d="M271.333,227.045a3.1,3.1,0,0,0-.918.867.27.27,0,0,0,.455.289,2.824,2.824,0,0,1,3.139-1.012.27.27,0,0,0,.13-.523A3.523,3.523,0,0,0,271.333,227.045Z" transform="translate(-253.438 -201.279)" fill="#323b56"/>
  <path id="Path_62" data-name="Path 62" d="M292.734,155.579a.27.27,0,0,0,.207-.5,3.953,3.953,0,0,0-4.146.441,5.054,5.054,0,0,0-1.342,1.584.27.27,0,1,0,.483.24,4.547,4.547,0,0,1,1.188-1.4A3.418,3.418,0,0,1,292.734,155.579Z" transform="translate(-269.723 -132.667)" fill="#323b56"/>
  <path id="Path_63" data-name="Path 63" d="M337.9,87.19a.269.269,0,0,0,.173.339,4.052,4.052,0,0,0,1.143.165,2.812,2.812,0,0,0,1.439-.358,2.56,2.56,0,0,0,1.165-1.833.27.27,0,1,0-.53-.1,2.049,2.049,0,0,1-.908,1.469,3,3,0,0,1-2.143.145A.27.27,0,0,0,337.9,87.19Z" transform="translate(-317.916 -66.275)" fill="#323b56"/>
  <path id="Path_64" data-name="Path 64" d="M248.547,264.232a.486.486,0,1,0-.486-.485A.486.486,0,0,0,248.547,264.232Zm0-.539a.054.054,0,1,1-.054.054A.054.054,0,0,1,248.547,263.693Z" transform="translate(-232.129 -236.352)" fill="#323b56"/>
  <path id="Path_65" data-name="Path 65" d="M333.567,68.232a.486.486,0,1,0-.486-.486A.486.486,0,0,0,333.567,68.232Zm0-.539a.054.054,0,1,1-.054.054A.054.054,0,0,1,333.567,67.693Z" transform="translate(-313.328 -49.158)" fill="#323b56"/>
  <path id="Path_66" data-name="Path 66" d="M485.873,80.633a.486.486,0,1,0,.486.486A.486.486,0,0,0,485.873,80.633Zm0,.539a.054.054,0,1,1,.054-.054A.054.054,0,0,1,485.873,81.172Z" transform="translate(-458.792 -61.93)" fill="#323b56"/>
  <path id="Path_67" data-name="Path 67" d="M233.8,213.707a.486.486,0,1,0-.485.486A.486.486,0,0,0,233.8,213.707Zm-.485.054a.054.054,0,1,1,.054-.054.054.054,0,0,1-.054.054Z" transform="translate(-217.583 -188.56)" fill="#323b56"/>
  <path id="Path_68" data-name="Path 68" d="M468.08,230.812a.486.486,0,1,0,.485.486A.486.486,0,0,0,468.08,230.812Zm0,.539a.054.054,0,1,1,.054-.054A.054.054,0,0,1,468.08,231.351Z" transform="translate(-441.797 -205.361)" fill="#323b56"/>
 </g>
</svg>
