<svg id="faq_1_" data-name="faq (1)" xmlns="http://www.w3.org/2000/svg" width="7.538" height="7.538" viewBox="0 0 7.538 7.538">
 <g id="Group_77" data-name="Group 77">
  <path id="Path_133" data-name="Path 133" d="M3.769,7.538A3.769,3.769,0,1,1,7.538,3.769,3.773,3.773,0,0,1,3.769,7.538Zm0-7.224A3.455,3.455,0,1,0,7.224,3.769,3.459,3.459,0,0,0,3.769.314Z" fill="#2b3e73"/>
 </g>
 <g id="Group_78" data-name="Group 78" transform="translate(3.298 5.025)">
  <path id="Path_134" data-name="Path 134" d="M10.971,16.942a.471.471,0,1,1,.471-.471A.472.472,0,0,1,10.971,16.942Zm0-.628a.157.157,0,1,0,.157.157A.157.157,0,0,0,10.971,16.314Z" transform="translate(-10.5 -16)" fill="#2b3e73"/>
 </g>
 <g id="Group_79" data-name="Group 79" transform="translate(2.513 1.256)">
  <path id="Path_135" data-name="Path 135" d="M9.256,7.3A.157.157,0,0,1,9.1,7.141V6.754a.626.626,0,0,1,.44-.6.942.942,0,1,0-1.225-.9.157.157,0,1,1-.314,0,1.256,1.256,0,1,1,1.633,1.2.313.313,0,0,0-.22.3v.386A.157.157,0,0,1,9.256,7.3Z" transform="translate(-8 -4)" fill="#2b3e73"/>
 </g>
</svg>
