<svg id="letter" xmlns="http://www.w3.org/2000/svg" width="21.848" height="21.848" viewBox="0 0 21.848 21.848">
 <g id="Group_27" data-name="Group 27" transform="translate(7.206 4.448)">
  <rect id="Rectangle_7" data-name="Rectangle 7" width="7.358" height="0.732" rx="0.366" fill="#2b3e73"/>
 </g>
 <g id="Group_27-2" data-name="Group 27" transform="translate(7.206 7.157)">
  <rect id="Rectangle_7-2" data-name="Rectangle 7" width="7.358" height="0.732" rx="0.366" fill="#2b3e73"/>
 </g>
 <g id="Group_27-3" data-name="Group 27" transform="translate(7.206 9.866)">
  <rect id="Rectangle_7-3" data-name="Rectangle 7" width="7.358" height="0.732" rx="0.366" fill="#2b3e73"/>
 </g>
 <g id="Group_34" data-name="Group 34">
  <g id="Group_33" data-name="Group 33">
   <path id="Path_70" data-name="Path 70" d="M18.325,4.816V0H3.522V4.816L0,7.787v14.06H21.848V7.787Zm0,1.115,2.169,1.874L18.325,9.679ZM4.523,1h12.8v9.759l-6.4,5.445-6.4-5.445Zm-1,4.931V9.679L1.353,7.805ZM.721,8.9l5.971,4.846L.721,20.464ZM1.59,21.127l5.8-6.831,3.531,3.023L14.455,14.3l5.8,6.831Zm19.537-.383-5.971-7,5.971-5.126Z" fill="#2b3e73"/>
  </g>
 </g>
</svg>
