<svg id="qr-code" xmlns="http://www.w3.org/2000/svg" width="10.65" height="10.65" viewBox="0 0 10.65 10.65">
 <g id="Group_21" data-name="Group 21" transform="translate(1.581 1.581)">
  <path id="Path_30" data-name="Path 30" d="M338.08,336v2.08H336V336Zm0,0" transform="translate(-330.592 -330.592)" fill="none"/>
  <path id="Path_31" data-name="Path 31" d="M338.08,76v2.08H336V76Zm0,0" transform="translate(-330.592 -76)" fill="none"/>
  <path id="Path_32" data-name="Path 32" d="M78.08,336v2.08H76V336Zm0,0" transform="translate(-76 -330.592)" fill="none"/>
  <path id="Path_33" data-name="Path 33" d="M78.08,76v2.08H76V76Zm0,0" transform="translate(-76 -76)" fill="none"/>
 </g>
 <path id="Path_34" data-name="Path 34" d="M286.208,266.416a.208.208,0,1,0-.208-.208A.208.208,0,0,0,286.208,266.416Zm0,0" transform="translate(-280.051 -260.467)" fill="#fff"/>
 <path id="Path_35" data-name="Path 35" d="M66.208,266.416a.208.208,0,1,0-.208-.208A.208.208,0,0,0,66.208,266.416Zm0,0" transform="translate(-64.627 -260.467)" fill="#fff"/>
 <path id="Path_36" data-name="Path 36" d="M.208,2.621a.208.208,0,0,0,.208-.208v-2h2a.208.208,0,0,0,0-.416H.208A.208.208,0,0,0,0,.208v2.2A.208.208,0,0,0,.208,2.621Zm0,0" fill="#fff"/>
 <path id="Path_37" data-name="Path 37" d="M2.621,388.413a.208.208,0,0,0-.208-.208h-2v-2a.208.208,0,0,0-.416,0v2.2a.208.208,0,0,0,.208.208h2.2A.208.208,0,0,0,2.621,388.413Zm0,0" transform="translate(0 -377.971)" fill="#fff"/>
 <path id="Path_38" data-name="Path 38" d="M388.413,386a.208.208,0,0,0-.208.208v2h-2a.208.208,0,0,0,0,.416h2.2a.208.208,0,0,0,.208-.208v-2.2A.208.208,0,0,0,388.413,386Zm0,0" transform="translate(-377.971 -377.971)" fill="#fff"/>
 <path id="Path_39" data-name="Path 39" d="M388.413,0h-2.2a.208.208,0,0,0,0,.416h2v2a.208.208,0,0,0,.416,0V.208A.208.208,0,0,0,388.413,0Zm0,0" transform="translate(-377.971)" fill="#fff"/>
 <path id="Path_40" data-name="Path 40" d="M66,328.288a.208.208,0,0,0,.208.208h2.08a.208.208,0,0,0,.208-.208v-2.08a.208.208,0,0,0-.208-.208h-2.08a.208.208,0,0,0-.208.208Zm.416-1.872H68.08v1.664H66.416Zm0,0" transform="translate(-64.627 -319.219)" fill="#fff"/>
 <path id="Path_41" data-name="Path 41" d="M68.288,66h-2.08a.208.208,0,0,0-.208.208v2.08a.208.208,0,0,0,.208.208h2.08a.208.208,0,0,0,.208-.208v-2.08A.208.208,0,0,0,68.288,66Zm-.208,2.08H66.416V66.416H68.08Zm0,0" transform="translate(-64.627 -64.627)" fill="#fff"/>
 <path id="Path_42" data-name="Path 42" d="M328.5,66.208a.208.208,0,0,0-.208-.208h-2.08a.208.208,0,0,0-.208.208v2.08a.208.208,0,0,0,.208.208h2.08a.208.208,0,0,0,.208-.208Zm-.416,1.872h-1.664V66.416h1.664Zm0,0" transform="translate(-319.219 -64.627)" fill="#fff"/>
 <path id="Path_43" data-name="Path 43" d="M328.5,328.288v-2.08a.208.208,0,0,0-.208-.208h-2.08a.208.208,0,0,0-.208.208v2.08a.208.208,0,0,0,.208.208h2.08A.208.208,0,0,0,328.5,328.288Zm-.416-.208h-1.664v-1.664h1.664Zm0,0" transform="translate(-319.219 -319.219)" fill="#fff"/>
 <path id="Path_44" data-name="Path 44" d="M106.624,366h-.416a.208.208,0,0,0-.208.208v.416a.208.208,0,0,0,.208.208h.416a.208.208,0,0,0,.208-.208v-.416A.208.208,0,0,0,106.624,366Zm0,0" transform="translate(-103.795 -358.387)" fill="#fff"/>
 <path id="Path_45" data-name="Path 45" d="M106.208,106.832h.416a.208.208,0,0,0,.208-.208v-.416a.208.208,0,0,0-.208-.208h-.416a.208.208,0,0,0-.208.208v.416A.208.208,0,0,0,106.208,106.832Zm0,0" transform="translate(-103.795 -103.795)" fill="#fff"/>
 <path id="Path_46" data-name="Path 46" d="M366.208,106.832h.416a.208.208,0,0,0,.208-.208v-.416a.208.208,0,0,0-.208-.208h-.416a.208.208,0,0,0-.208.208v.416A.208.208,0,0,0,366.208,106.832Zm0,0" transform="translate(-358.387 -103.795)" fill="#fff"/>
 <path id="Path_47" data-name="Path 47" d="M366.208,366.832h.416a.208.208,0,0,0,.208-.208v-.416a.208.208,0,0,0-.208-.208h-.416a.208.208,0,0,0-.208.208v.416A.208.208,0,0,0,366.208,366.832Zm0,0" transform="translate(-358.387 -358.387)" fill="#fff"/>
 <path id="Path_48" data-name="Path 48" d="M106,266.208a.208.208,0,0,0,.208.208h2.7v1.04a.208.208,0,0,0,.416,0v-1.248a.208.208,0,0,0-.208-.208h-2.912A.208.208,0,0,0,106,266.208Zm0,0" transform="translate(-103.795 -260.467)" fill="#fff"/>
 <path id="Path_49" data-name="Path 49" d="M68.288,226.416a.208.208,0,0,0,0-.416h-2.08a.208.208,0,1,0,0,.416Zm0,0" transform="translate(-64.627 -221.299)" fill="#fff"/>
 <path id="Path_50" data-name="Path 50" d="M206.208,226.416h.832a.208.208,0,1,0,0-.416h-.832a.208.208,0,0,0,0,.416Zm0,0" transform="translate(-201.715 -221.299)" fill="#fff"/>
 <path id="Path_51" data-name="Path 51" d="M206.208,66a.208.208,0,0,0-.208.208v2.08a.208.208,0,0,0,.208.208h1.456v1.04a.208.208,0,0,0,.208.208h.832a.208.208,0,1,0,0-.416h-.624v-1.04a.208.208,0,0,0-.208-.208h-1.456V66.208A.208.208,0,0,0,206.208,66Zm0,0" transform="translate(-201.715 -64.627)" fill="#fff"/>
 <path id="Path_52" data-name="Path 52" d="M367.456,226h-1.248a.208.208,0,1,0,0,.416h1.248a.208.208,0,0,0,0-.416Zm0,0" transform="translate(-358.387 -221.299)" fill="#fff"/>
 <path id="Path_53" data-name="Path 53" d="M328.288,266h-2.08a.208.208,0,0,0,0,.416h2.08a.208.208,0,0,0,0-.416Zm0,0" transform="translate(-319.219 -260.467)" fill="#fff"/>
 <path id="Path_54" data-name="Path 54" d="M207.04,366h-.832a.208.208,0,0,0-.208.208v1.248a.208.208,0,1,0,.416,0v-1.04h.624a.208.208,0,1,0,0-.416Zm0,0" transform="translate(-201.715 -358.387)" fill="#fff"/>
 <path id="Path_55" data-name="Path 55" d="M246.832,308.5h-.624a.208.208,0,0,0,0,.416h.832a.208.208,0,0,0,.208-.208v-2.5a.208.208,0,0,0-.416,0Zm0,0" transform="translate(-240.883 -299.635)" fill="#fff"/>
 <path id="Path_56" data-name="Path 56" d="M247.04,67.664a.208.208,0,0,0,.208-.208V66.208a.208.208,0,0,0-.416,0v1.04h-.624a.208.208,0,0,0,0,.416Zm0,0" transform="translate(-240.883 -64.627)" fill="#fff"/>
</svg>
