<svg xmlns="http://www.w3.org/2000/svg" width="18.45" height="22.004" viewBox="0 0 18.45 22.004">
 <g id="notification-bell" transform="translate(-40.358 0.82)">
  <path id="Path_71" data-name="Path 71" d="M360.036,8.02l1.23-.367a9.63,9.63,0,0,0-4.27-5.5l-.662,1.1a8.348,8.348,0,0,1,3.7,4.767Z" transform="translate(-302.458 -2.78)" fill="#2b3e73"/>
  <path id="Path_72" data-name="Path 72" d="M45.291,3.252l-.662-1.1a9.63,9.63,0,0,0-4.27,5.5l1.23.367a8.349,8.349,0,0,1,3.7-4.768Z" transform="translate(0 -2.78)" fill="#2b3e73"/>
  <path id="Path_73" data-name="Path 73" d="M62.283,7.623V14.5a1.539,1.539,0,0,1-.454,1.1,2.814,2.814,0,0,0-.83,2v1.018h5.2a3.209,3.209,0,0,0,6.288,0h5.2V17.6a2.814,2.814,0,0,0-.83-2,1.539,1.539,0,0,1-.454-1.1V7.623A7.068,7.068,0,0,0,69.984.594,3.48,3.48,0,0,0,69.867-.6.873.873,0,0,0,68.7-.6a5.491,5.491,0,0,0,0,1.19A7.068,7.068,0,0,0,62.283,7.623ZM69.342,19.9a1.928,1.928,0,0,1-1.815-1.284h3.629A1.928,1.928,0,0,1,69.342,19.9ZM75.117,7.623V14.5a2.814,2.814,0,0,0,.83,2,1.538,1.538,0,0,1,.431.83H62.306a1.537,1.537,0,0,1,.431-.83,2.814,2.814,0,0,0,.83-2V7.623a5.775,5.775,0,1,1,11.55,0Z" transform="translate(-19.759 0)" fill="#2b3e73"/>
 </g>
</svg>
