<svg xmlns="http://www.w3.org/2000/svg" width="15.467" height="18.539" viewBox="0 0 15.467 18.539">
 <g id="profile_icon" data-name="profile icon" transform="translate(-27.188 -696)">
  <g id="user" transform="translate(27.189 696)">
   <path id="Path_37" data-name="Path 37" d="M91.5,8.93a4.321,4.321,0,0,0,3.157-1.308,4.321,4.321,0,0,0,1.308-3.157,4.321,4.321,0,0,0-1.308-3.157,4.464,4.464,0,0,0-6.314,0,4.321,4.321,0,0,0-1.308,3.157A4.321,4.321,0,0,0,88.34,7.622,4.322,4.322,0,0,0,91.5,8.93ZM89.108,2.076a3.378,3.378,0,0,1,4.778,0,3.228,3.228,0,0,1,.99,2.389,3.228,3.228,0,0,1-.99,2.389,3.377,3.377,0,0,1-4.778,0,3.227,3.227,0,0,1-.99-2.389,3.228,3.228,0,0,1,.99-2.389Zm0,0" transform="translate(-83.881 0)" fill="#323b56"/>
   <path id="Path_38" data-name="Path 38" d="M15.429,252.617a11.03,11.03,0,0,0-.15-1.171,9.228,9.228,0,0,0-.288-1.178,5.817,5.817,0,0,0-.484-1.1,4.141,4.141,0,0,0-.73-.951,3.219,3.219,0,0,0-1.049-.659,3.625,3.625,0,0,0-1.339-.242,1.359,1.359,0,0,0-.726.308c-.218.142-.472.306-.756.487a4.332,4.332,0,0,1-.978.431,3.8,3.8,0,0,1-2.393,0,4.321,4.321,0,0,1-.977-.431c-.281-.18-.536-.344-.757-.488a1.357,1.357,0,0,0-.725-.308,3.62,3.62,0,0,0-1.339.243,3.216,3.216,0,0,0-1.049.659,4.142,4.142,0,0,0-.73.951,5.828,5.828,0,0,0-.484,1.1,9.251,9.251,0,0,0-.288,1.178,10.955,10.955,0,0,0-.15,1.172c-.025.354-.037.722-.037,1.095a3.078,3.078,0,0,0,.914,2.329,3.291,3.291,0,0,0,2.356.859H12.2a3.291,3.291,0,0,0,2.356-.859,3.077,3.077,0,0,0,.914-2.329c0-.374-.013-.742-.037-1.1ZM13.8,255.254a2.216,2.216,0,0,1-1.607.56H3.27a2.216,2.216,0,0,1-1.607-.56,2.01,2.01,0,0,1-.577-1.542c0-.347.011-.69.034-1.02a9.879,9.879,0,0,1,.136-1.055A8.16,8.16,0,0,1,1.51,250.6a4.745,4.745,0,0,1,.394-.893,3.069,3.069,0,0,1,.536-.7,2.136,2.136,0,0,1,.7-.434,2.5,2.5,0,0,1,.856-.165c.038.02.106.059.216.13.223.146.481.312.765.493a5.382,5.382,0,0,0,1.228.549,4.884,4.884,0,0,0,3.061,0,5.389,5.389,0,0,0,1.229-.549c.291-.186.541-.347.765-.493.11-.071.178-.11.216-.13a2.5,2.5,0,0,1,.856.165,2.139,2.139,0,0,1,.7.434,3.061,3.061,0,0,1,.536.7,4.729,4.729,0,0,1,.394.893,8.141,8.141,0,0,1,.253,1.038,9.963,9.963,0,0,1,.136,1.055h0c.023.328.035.671.035,1.019a2.01,2.01,0,0,1-.577,1.542Zm0,0" transform="translate(0 -238.361)" fill="#323b56"/>
  </g>
 </g>
</svg>
