<svg xmlns="http://www.w3.org/2000/svg" width="20.245" height="17.082" viewBox="0 0 20.245 17.082">
 <g id="customer-support_1_" data-name="customer-support (1)" transform="translate(0 -40)">
  <path id="Path_137" data-name="Path 137" d="M18.9,47.672h-.536a8.263,8.263,0,0,0-16.484,0H1.345A1.346,1.346,0,0,0,0,49.017v4.329a1.346,1.346,0,0,0,1.345,1.345h0a1.7,1.7,0,0,0,1.7-1.7V48.265a7.077,7.077,0,1,1,14.153,0v3.7h-.008a1.869,1.869,0,0,0-1.867,1.867A2.068,2.068,0,0,1,13.259,55.9H12.211a2.265,2.265,0,0,0-2.182-1.668H9.382a1.427,1.427,0,0,0,0,2.854h3.877A3.255,3.255,0,0,0,16.51,53.83a.681.681,0,0,1,.68-.681h.015a1.7,1.7,0,0,0,1.69,1.542h0a1.346,1.346,0,0,0,1.345-1.345V49.017A1.346,1.346,0,0,0,18.9,47.672ZM1.86,52.994a.512.512,0,0,1-.511.511h0a.159.159,0,0,1-.159-.159V49.017a.159.159,0,0,1,.159-.159H1.86Zm7.522,2.9a.241.241,0,0,1,0-.481h.647a1.074,1.074,0,0,1,.9.481Zm9.677-2.549a.159.159,0,0,1-.159.159h0a.512.512,0,0,1-.511-.511V48.858H18.9a.159.159,0,0,1,.159.159Z" transform="translate(0 0)" fill="#323b56"/>
  <path id="Path_138" data-name="Path 138" d="M142.879,184.754a.593.593,0,0,0-.593-.593h-2.3a.132.132,0,0,1-.132-.132,1.054,1.054,0,0,1,1.053-1.053,1.976,1.976,0,0,0,0-3.953h-1.646a.593.593,0,0,0,0,1.186H140.9a.79.79,0,0,1,0,1.58,2.242,2.242,0,0,0-2.239,2.239,1.32,1.32,0,0,0,1.318,1.318h2.3A.593.593,0,0,0,142.879,184.754Z" transform="translate(-133.181 -133.526)" fill="#323b56"/>
  <path id="Path_139" data-name="Path 139" d="M267.33,179.022a.593.593,0,0,0-.593.593v1.57a1.594,1.594,0,0,0,1.592,1.593h1.436v1.976a.593.593,0,0,0,1.186,0v-5.138a.593.593,0,0,0-1.186,0v1.976h-1.436a.407.407,0,0,1-.406-.406v-1.57A.593.593,0,0,0,267.33,179.022Z" transform="translate(-256.19 -133.525)" fill="#323b56"/>
 </g>
</svg>
