<svg xmlns="http://www.w3.org/2000/svg" width="18.336" height="18.315" viewBox="0 0 18.336 18.315">
    <g id="phone-call_icon" data-name="phone-call icon" transform="translate(2.504) rotate(9)">
        <g id="Group_17" data-name="Group 17" transform="translate(0 0)">
            <path id="Path_24" data-name="Path 24" d="M15.609,11.745,13.368,9.512a1.493,1.493,0,0,0-2.482.558,1.527,1.527,0,0,1-1.761.957A6.9,6.9,0,0,1,4.961,6.88a1.445,1.445,0,0,1,.961-1.755,1.483,1.483,0,0,0,.56-2.473L4.241.419a1.6,1.6,0,0,0-2.162,0L.558,1.934c-1.521,1.6.16,5.823,3.923,9.572s8.006,5.5,9.607,3.908L15.609,13.9A1.589,1.589,0,0,0,15.609,11.745Z" fill="#2b3e73"/>
        </g>
    </g>
</svg>
