<svg id="compass" xmlns="http://www.w3.org/2000/svg" width="18.481" height="18.481" viewBox="0 0 18.481 18.481">
    <path id="Path_394" data-name="Path 394" d="M9.24,0a9.24,9.24,0,1,0,9.24,9.24A9.241,9.241,0,0,0,9.24,0Zm0,17.865A8.624,8.624,0,1,1,17.865,9.24,8.624,8.624,0,0,1,9.24,17.865Zm0,0" fill="#fff"/>
    <path id="Path_396" data-name="Path 396" d="M129,119.931a.308.308,0,0,0-.37-.05l-5.5,3.138s0,.006-.008.008a.925.925,0,0,0-.1.1s-.006,0-.008.008l-3.139,5.5a.308.308,0,0,0,.42.42l5.5-3.138s0-.006.008-.008a.925.925,0,0,0,.1-.1s.006,0,.008-.008l3.139-5.5a.308.308,0,0,0-.05-.371Zm-8.028,8.028,2.38-4.168,1.79,1.788Zm4.6-2.814-1.786-1.787,4.168-2.38Zm0,0" transform="translate(-115.223 -115.227)" fill="#fff"/>
    <path id="Path_397" data-name="Path 397" d="M73.54,232H72.308a.308.308,0,0,0,0,.616H73.54a.308.308,0,1,0,0-.616Zm0,0" transform="translate(-69.228 -223.068)" fill="#fff"/>
    <path id="Path_398" data-name="Path 398" d="M361.54,232h-1.232a.308.308,0,1,0,0,.616h1.232a.308.308,0,1,0,0-.616Zm0,0" transform="translate(-346.139 -223.068)" fill="#fff"/>
    <path id="Path_399" data-name="Path 399" d="M232.308,73.848a.308.308,0,0,0,.308-.308V72.308a.308.308,0,1,0-.616,0V73.54A.308.308,0,0,0,232.308,73.848Zm0,0" transform="translate(-223.068 -69.228)" fill="#fff"/>
    <path id="Path_400" data-name="Path 400" d="M232.308,360a.308.308,0,0,0-.308.308v1.232a.308.308,0,0,0,.616,0v-1.232A.308.308,0,0,0,232.308,360Zm0,0" transform="translate(-223.068 -346.139)" fill="#fff"/>
</svg>
