<svg id="icon_direction" data-name="icon direction" xmlns="http://www.w3.org/2000/svg" width="7.434" height="34.433" viewBox="0 0 7.434 34.433">
    <line id="Line_16" data-name="Line 16" y2="9" transform="translate(3.5 16.107)" fill="none" stroke="#2b3e73" stroke-linecap="round" stroke-width="1" stroke-dasharray="0 3"/>
    <g id="location_Icon" data-name="location Icon" transform="translate(-405 -81.393)">
        <path id="Path_437" data-name="Path 437" d="M4.451,179.963c.977-1.042,2.983-3.44,2.983-5.579a3.677,3.677,0,0,0-3.717-3.717A3.677,3.677,0,0,0,0,174.384c0,2.766,3.361,5.975,3.5,6.11a.308.308,0,0,0,.213.085C3.943,180.579,4.557,180.006,4.451,179.963Zm-.734-.131c-.732-.747-3.1-3.325-3.1-5.448a3.064,3.064,0,0,1,3.1-3.1,3.064,3.064,0,0,1,3.1,3.1C6.814,176.507,4.449,179.086,3.717,179.832Z" transform="translate(405 -89.274)" fill="#2b3e73"/>
        <path id="Path_438" data-name="Path 438" d="M65.858,234.667a1.858,1.858,0,1,0,1.858,1.858A1.86,1.86,0,0,0,65.858,234.667Zm0,3.1a1.239,1.239,0,1,1,1.239-1.239A1.24,1.24,0,0,1,65.858,237.764Z" transform="translate(343 -151.88)" fill="#2b3e73"/>
    </g>
    <g id="compass_1_" data-name="compass (1)" transform="translate(0.459 27.711) rotate(-2)">
        <g id="Group_103" data-name="Group 103" transform="translate(0.002 0.001)">
            <path id="Path_416" data-name="Path 416" d="M.08.078A.266.266,0,0,1,.368.02L6.2,2.406a.265.265,0,0,1-.053.506l-2.736.5-.5,2.736a.265.265,0,0,1-.233.216H2.653A.266.266,0,0,1,2.408,6.2L.021.366A.265.265,0,0,1,.08.078Z" transform="translate(-0.002 -0.001)" fill="none" stroke="#2b3e73" stroke-width="0.7"/>
        </g>
    </g>
</svg>
