<svg id="flag" xmlns="http://www.w3.org/2000/svg" width="36.063" height="37.568" viewBox="0 0 36.063 37.568">
    <g id="flag-2" data-name="flag" transform="translate(-27.84)">
        <path id="Path_293" data-name="Path 293" d="M63.282,13.388a1.133,1.133,0,0,0-1.058-.113c-.073.029-7.566,2.977-13.822.027-7.16-3.383-15.29-.165-15.635-.025a1.133,1.133,0,0,0-.707,1.049V32.453A1.133,1.133,0,0,0,33.617,33.5c.075-.032,7.566-2.98,13.822-.027a17.106,17.106,0,0,0,7.337,1.543,24.245,24.245,0,0,0,8.3-1.516,1.133,1.133,0,0,0,.707-1.051V14.326A1.133,1.133,0,0,0,63.282,13.388Z" transform="translate(-0.112 -10.927)" fill="none"/>
        <path id="Path_294" data-name="Path 294" d="M54.664,35.032a17.105,17.105,0,0,1-7.337-1.543,17.16,17.16,0,0,0-10.211-.95A13.367,13.367,0,0,0,33.55,33.7c-.581.235-.667.293-.9-.287s-.581-1.055,0-1.291c.342-.136,8.477-3.932,15.635-.549,4.2,1.638,7.609.657,11.867-.836V14.876c-4.611,1.478-8.341,1.832-12.823,0-6.279-2.964-14.165,2.075-14.24,2.1-.581.235-.2-1.521-.434-2.1s-.585-1.354,0-1.589c.342-.138,8.477-3.354,15.635.027,6.279,2.959,13.964-.525,14.041-.552.578-.239,1.315.334,1.554.912.057.139,0,.086,0,.236V32.667c0,.462-.486.675-.914.849A24.244,24.244,0,0,1,54.664,35.032Z" transform="translate(0 -10.939)"/>
        <path id="Path_295" data-name="Path 295" d="M34.06,36.255c-1.1,0-2-.507-2-1.133V1.133c0-.626.9-1.133,2-1.133s2,.507,2,1.133V35.122C36.06,35.748,35.165,36.255,34.06,36.255Z" transform="translate(0.034)"/>
    </g>
    <path id="Path_296" data-name="Path 296" d="M1,12.5c-.552,0-1-2.449-1-2.664V2.664C0,2.449.448,0,1,0S2,.175,2,.391V12.109C2,12.325,1.552,12.5,1,12.5Z" transform="translate(12.5 35.568) rotate(90)"/>
</svg>
