<svg id="pencil" xmlns="http://www.w3.org/2000/svg" width="9.917" height="9.917" viewBox="0 0 9.917 9.917">
 <g id="Group_21" data-name="Group 21" transform="translate(0 0)">
  <g id="Group_20" data-name="Group 20" transform="translate(0 0)">
   <path id="Path_27" data-name="Path 27" d="M354.928,1.207l.9-.9a1.054,1.054,0,0,1,1.489,0l.352.352-2.388,2.388-.352-.352A1.053,1.053,0,0,1,354.928,1.207Z" transform="translate(-354.619 0)" fill="#2b3e73"/>
  </g>
 </g>
 <g id="Group_23" data-name="Group 23" transform="translate(7.298 7.298)">
  <g id="Group_22" data-name="Group 22" transform="translate(0)">
   <path id="Path_28" data-name="Path 28" d="M2.193,376.747l.422,2.276a.291.291,0,0,1-.339.339L0,378.94Z" transform="translate(0 -376.747)" fill="#2b3e73"/>
  </g>
 </g>
 <g id="Group_25" data-name="Group 25" transform="translate(1.071 1.071)">
  <g id="Group_24" data-name="Group 24">
   <path id="Path_29" data-name="Path 29" d="M40.586,55.274,46.3,60.993l-2.388,2.388L38.2,57.662Z" transform="translate(-38.198 -55.274)" fill="#2b3e73"/>
  </g>
 </g>
</svg>
