<svg xmlns="http://www.w3.org/2000/svg" width="23.75" height="23.766" viewBox="0 0 23.75 23.766">
 <g id="Group_172" data-name="Group 172" transform="translate(-260.973 -349.053)">
  <path id="Path_412" data-name="Path 412" d="M0,0A8.446,8.446,0,0,1,0,16.893C.115,6.462-.026,7.239,0,0Z" transform="translate(266.949 366.974) rotate(-135)" fill="#00adef"/>
  <path id="Path_410" data-name="Path 410" d="M8.446,0a8.446,8.446,0,1,0,0,16.893C8.335,6.462,8.477,7.239,8.446,0Z" transform="translate(272.769 372.794) rotate(-135)" fill="none"/>
  <path id="Path_411" data-name="Path 411" d="M.014.036C-.273,4.178,3.8,8.483,8.461,8.483,8.422,4.853,8.221,2.191,8.1.036,4.637.009,8.182-.03.014.036Z" transform="translate(278.726 366.857) rotate(-135)" fill="#c1c1c1"/>
  <path id="Path_413" data-name="Path 413" d="M.014.036C-.273,4.178,3.8,8.483,8.461,8.483,8.422,4.853,8.221,2.191,8.1.036,4.637.009,8.182-.03.014.036Z" transform="translate(266.781 366.821) rotate(-45)" fill="#c1c1c1"/>
  <circle id="Ellipse_44" data-name="Ellipse 44" cx="6.547" cy="6.547" r="6.547" transform="translate(266.217 354.269)" fill="#fff"/>
 </g>
</svg>
