<svg id="share_icon" data-name="share icon" xmlns="http://www.w3.org/2000/svg" width="17.981" height="19.615" viewBox="0 0 17.981 19.615">
    <path id="Path_15" data-name="Path 15" d="M312.4,6.13a3.065,3.065,0,1,1,3.065-3.065A3.069,3.069,0,0,1,312.4,6.13Zm0-4.9a1.839,1.839,0,1,0,1.839,1.839A1.841,1.841,0,0,0,312.4,1.226Zm0,0" transform="translate(-297.481)" fill="#2b3e73"/>
    <path id="Path_16" data-name="Path 16" d="M312.4,358.13a3.065,3.065,0,1,1,3.065-3.065A3.069,3.069,0,0,1,312.4,358.13Zm0-4.9a1.839,1.839,0,1,0,1.839,1.839A1.841,1.841,0,0,0,312.4,353.226Zm0,0" transform="translate(-297.481 -338.514)" fill="#2b3e73"/>
    <path id="Path_17" data-name="Path 17" d="M3.065,182.13a3.065,3.065,0,1,1,3.065-3.065A3.069,3.069,0,0,1,3.065,182.13Zm0-4.9A1.839,1.839,0,1,0,4.9,179.065,1.841,1.841,0,0,0,3.065,177.226Zm0,0" transform="translate(0 -169.257)" fill="#2b3e73"/>
    <path id="Path_18" data-name="Path 18" d="M120.3,101.109a.613.613,0,0,1-.3-1.145l7.584-4.324a.613.613,0,0,1,.606,1.065l-7.584,4.324a.614.614,0,0,1-.3.08Zm0,0" transform="translate(-115.104 -91.898)" fill="#2b3e73"/>
    <path id="Path_19" data-name="Path 19" d="M127.906,277.1a.608.608,0,0,1-.3-.081l-7.584-4.324a.613.613,0,0,1,.607-1.065l7.584,4.324a.613.613,0,0,1-.3,1.146Zm0,0" transform="translate(-115.125 -261.145)" fill="#2b3e73"/>
</svg>
