<svg id="coin_2_" data-name="coin (2)" xmlns="http://www.w3.org/2000/svg" width="17.019" height="18.528" viewBox="0 0 17.019 18.528">
 <circle id="Ellipse_5" data-name="Ellipse 5" cx="7.988" cy="7.988" r="7.988" transform="translate(1.042 2.551)" fill="#fdbc4b"/>
 <ellipse id="Ellipse_6" data-name="Ellipse 6" cx="5.773" cy="5.773" rx="5.773" ry="5.773" transform="translate(3.258 4.767)" fill="#ec9922"/>
 <g id="Group_115" data-name="Group 115" transform="translate(1.531 3.038)" opacity="0.25">
  <path id="Path_414" data-name="Path 414" d="M67.29,98.056A7.5,7.5,0,1,1,75.533,85.7a.58.58,0,0,1-.774.864A6.34,6.34,0,1,0,67.792,97.01a.58.58,0,1,1-.5,1.046Z" transform="translate(-63.032 -83.792)" fill="#fff"/>
 </g>
 <g id="Group_116" data-name="Group 116" transform="translate(0)">
  <path id="Path_415" data-name="Path 415" d="M45.21,17.2A1.953,1.953,0,0,0,43.1,15.09a1.953,1.953,0,0,0,2.114-2.114,1.953,1.953,0,0,0,2.114,2.114A1.953,1.953,0,0,0,45.21,17.2Z" transform="translate(-42.288 -12.505)" fill="#ffdb70"/>
  <path id="Path_416" data-name="Path 416" d="M21.9,2.187a1.011,1.011,0,0,0-1.094-1.094A1.011,1.011,0,0,0,21.9,0,1.011,1.011,0,0,0,23,1.094,1.011,1.011,0,0,0,21.9,2.187Z" transform="translate(-20.808)" fill="#ffdb70"/>
 </g>
 <path id="Path_417" data-name="Path 417" d="M110.648,148.684a5.771,5.771,0,0,0,3.627,5.356h.568a.8.8,0,1,0,0-1.6H113.77a.672.672,0,0,1-.671-.674v-.009c0-.016,0-.033,0-.049a.635.635,0,0,1,.634-.674h1.421a.833.833,0,0,0,.846-.759.8.8,0,0,0-.8-.845h-.44a.673.673,0,0,1-.672-.676v-.056a.71.71,0,0,1,.709-.713h.568a.833.833,0,0,0,.846-.759.8.8,0,0,0-.8-.845h-2.05a.684.684,0,0,1-.672-.713v-.02a.684.684,0,0,1,.672-.713h.663a.833.833,0,0,0,.846-.759.8.8,0,0,0-.64-.828A5.774,5.774,0,0,0,110.648,148.684Z" transform="translate(-107.39 -138.146)" fill="#e48d25"/>
 <path id="Path_418" data-name="Path 418" d="M202.379,174.9v-2.163a2.848,2.848,0,0,1-1.485-.875,2.194,2.194,0,0,1-.472-1.423,2.013,2.013,0,0,1,.534-1.423,2.152,2.152,0,0,1,1.423-.664v-.511h.748v.511a2.218,2.218,0,0,1,1.307.56,2.158,2.158,0,0,1,.62,1.236l-1.307.171a1.05,1.05,0,0,0-.62-.826v2.019a3.33,3.33,0,0,1,1.688.87,2.058,2.058,0,0,1,.449,1.371,2.294,2.294,0,0,1-.565,1.575,2.485,2.485,0,0,1-1.572.785v.631h-.748v-.606a2.392,2.392,0,0,1-1.451-.666,2.741,2.741,0,0,1-.712-1.575l1.348-.144a1.717,1.717,0,0,0,.31.712A1.412,1.412,0,0,0,202.379,174.9Zm0-5.421a.971.971,0,0,0-.486.351.906.906,0,0,0-.18.547.867.867,0,0,0,.165.509,1.148,1.148,0,0,0,.5.379Zm.748,5.494a1.05,1.05,0,0,0,.63-.359,1.009,1.009,0,0,0,.242-.674.913.913,0,0,0-.2-.6,1.3,1.3,0,0,0-.668-.385Z" transform="translate(-193.711 -161.754)" fill="#fff"/>
</svg>
