<svg xmlns="http://www.w3.org/2000/svg" width="255.159" height="216.067" viewBox="0 0 255.159 216.067">
  <defs>
    <style>
      .cls-1, .cls-2 {
        fill: #003974;
      }

      .cls-2 {
        stroke: #003974;
      }
    </style>
  </defs>
  <g id="heart_2_" data-name="heart (2)" transform="translate(0 -39.221)">
    <g id="Group_516" data-name="Group 516" transform="translate(0 39.221)">
      <path id="Path_1692" data-name="Path 1692" class="cls-1" d="M186.386,39.221c-21.225,0-39.832,9.464-53.808,27.37-1.864,2.388-3.525,4.777-5,7.091-1.473-2.314-3.134-4.7-5-7.091C108.605,48.685,90,39.221,68.773,39.221,28.677,39.221,0,72.794,0,113.08c0,46.065,37.754,89.479,122.415,140.766a9.969,9.969,0,0,0,10.329,0c84.661-51.287,122.415-94.7,122.415-140.766C255.159,72.815,226.505,39.221,186.386,39.221Zm22.5,131.217c-17.625,19.666-44.26,40.374-81.311,63.2-37.05-22.829-63.685-43.537-81.311-63.2C28.548,150.666,19.934,131.9,19.934,113.08c0-29.006,19.6-53.925,48.839-53.925,14.889,0,27.584,6.474,37.733,19.242a74.031,74.031,0,0,1,11.558,20.83,9.967,9.967,0,0,0,19.03,0,73.917,73.917,0,0,1,11.2-20.37c10.2-13.073,23.021-19.7,38.094-19.7,29.268,0,48.839,24.942,48.839,53.925C235.225,131.9,226.611,150.665,208.89,170.438Z" transform="translate(0 -39.221)"/>
      <path id="Path_1693" data-name="Path 1693" class="cls-2" d="M111.168,52.836s-9.61-22.914-27.062-38.007C61.72-4.53,28.219-13.353,7.423,30.686c-36.741,77.807,105.36,153.987,105.36,153.987s51.381-25.81,83.243-62.468c27.232-31.33,37.808-71.788,15.092-98-24.584-28.366-52.886-23.761-71.9-9.378C120.549,28.943,111.168,52.836,111.168,52.836Z" transform="translate(16.412 12.615)"/>
    </g>
  </g>
</svg>
