<svg xmlns="http://www.w3.org/2000/svg" width="33.492" height="32.057" viewBox="0 0 33.492 32.057">
 <g id="star" transform="translate(0 -10.971)">
  <path id="Path_460" data-name="Path 460" d="M75.92,25l-8.749-.811L63.7,16.115a.7.7,0,0,0-1.288,0l-3.475,8.07L50.185,25a.7.7,0,0,0-.4,1.225l6.6,5.8-1.932,8.571a.7.7,0,0,0,1.042.757l7.555-4.486,7.555,4.486a.7.7,0,0,0,1.042-.757L69.717,32.02l6.6-5.8A.7.7,0,0,0,75.92,25Z" transform="translate(-46.306 -4.411)" fill="#ffdc64"/>
  <g id="Group_196" data-name="Group 196" transform="translate(0 10.971)">
   <path id="Path_461" data-name="Path 461" d="M90.971,11.426c.446.619,1.7,3.28,2.425,4.83a.243.243,0,0,1-.388.279c-1.242-1.174-3.366-3.212-3.812-3.832a1.094,1.094,0,0,1,1.775-1.278Z" transform="translate(-83.169 -10.971)" fill="#fff082"/>
   <path id="Path_462" data-name="Path 462" d="M357.733,11.426c-.446.619-1.7,3.28-2.425,4.83a.243.243,0,0,0,.388.279c1.242-1.174,3.366-3.212,3.812-3.832a1.094,1.094,0,1,0-1.775-1.278Z" transform="translate(-332.044 -10.971)" fill="#fff082"/>
   <path id="Path_463" data-name="Path 463" d="M420.259,283.564c-.726-.237-3.643-.628-5.339-.842a.243.243,0,0,0-.148.454c1.5.827,4.083,2.231,4.809,2.467a1.094,1.094,0,0,0,.678-2.079Z" transform="translate(-387.522 -264.944)" fill="#fff082"/>
   <path id="Path_464" data-name="Path 464" d="M.755,283.564c.726-.237,3.643-.628,5.339-.842a.243.243,0,0,1,.148.454c-1.5.827-4.083,2.231-4.809,2.467a1.094,1.094,0,0,1-.678-2.079Z" transform="translate(0 -264.944)" fill="#fff082"/>
   <path id="Path_465" data-name="Path 465" d="M239.794,405.237c0-.763.533-3.658.855-5.337a.243.243,0,0,1,.478,0c.322,1.679.855,4.573.855,5.337a1.094,1.094,0,0,1-2.187,0Z" transform="translate(-224.108 -374.274)" fill="#fff082"/>
  </g>
  <path id="Path_466" data-name="Path 466" d="M64.96,19.05,63.7,16.115a.7.7,0,0,0-1.288,0l-3.475,8.07L50.185,25a.7.7,0,0,0-.4,1.225l6.6,5.8-1.932,8.571a.7.7,0,0,0,1.042.757l1.005-.6A54.425,54.425,0,0,1,64.96,19.05Z" transform="translate(-46.306 -4.411)" fill="#ffc850"/>
 </g>
</svg>
