<svg xmlns="http://www.w3.org/2000/svg" width="19.039" height="22" viewBox="0 0 19.039 22">
    <g id="location-pin" transform="translate(0)">
        <path id="Path_32" data-name="Path 32" d="M16.251,2.788A9.52,9.52,0,1,0,2.789,16.251l5.058,5.058a2.372,2.372,0,0,0,3.347,0l5.058-5.058a9.52,9.52,0,0,0,0-13.463ZM15.34,15.34,10.282,20.4a1.083,1.083,0,0,1-1.524,0L3.7,15.34a8.231,8.231,0,1,1,11.64,0Zm0,0" fill="#2b3e73"/>
        <path id="Path_33" data-name="Path 33" d="M145.688,142.281a3.406,3.406,0,1,0,3.406,3.406A3.41,3.41,0,0,0,145.688,142.281Zm0,5.523a2.117,2.117,0,1,1,2.117-2.117A2.119,2.119,0,0,1,145.688,147.8Zm0,0" transform="translate(-136.167 -136.167)" fill="#2b3e73"/>
    </g>
</svg>
