<svg xmlns="http://www.w3.org/2000/svg" width="24.143" height="21.219" viewBox="0 0 24.143 21.219">
    <g id="shopping-cart" transform="translate(0 0)">
        <path id="Path_34" data-name="Path 34" d="M7.778,14.147H20.606a.707.707,0,0,0,.68-.513l2.829-9.9a.707.707,0,0,0-.68-.9H6.147L5.642.554A.707.707,0,0,0,4.951,0H.707a.707.707,0,1,0,0,1.415H4.384L6.937,12.907a2.122,2.122,0,0,0,.843,4.069H20.606a.707.707,0,1,0,0-1.415H7.78a.707.707,0,0,1,0-1.414ZM22.5,4.244l-2.425,8.488H8.348L6.461,4.244Zm0,0" transform="translate(0 0)" fill="#2b3e73"/>
        <path id="Path_35" data-name="Path 35" d="M150,362.122A2.122,2.122,0,1,0,152.122,360,2.124,2.124,0,0,0,150,362.122Zm2.122-.707a.707.707,0,1,1-.707.707A.708.708,0,0,1,152.122,361.415Zm0,0" transform="translate(-142.927 -343.024)" fill="#2b3e73"/>
        <path id="Path_36" data-name="Path 36" d="M362,362.122A2.122,2.122,0,1,0,364.122,360,2.124,2.124,0,0,0,362,362.122Zm2.122-.707a.707.707,0,1,1-.707.707A.708.708,0,0,1,364.122,361.415Zm0,0" transform="translate(-344.93 -343.024)" fill="#2b3e73"/>
    </g>
</svg>
