<svg xmlns="http://www.w3.org/2000/svg" width="103.077" height="110.476" viewBox="0 0 103.077 110.476">
  <g id="clean-clothes" transform="translate(-17.147 -0.001)">
    <g id="Group_481" data-name="Group 481" transform="translate(17.147 32.411)">
      <g id="Group_479" data-name="Group 479" transform="translate(73.141)">
        <path id="Path_1507" data-name="Path 1507" d="M363.668,150.66l21.014,20.407a4.512,4.512,0,0,1-1.145,7.283l-27.421,13.543,4.851-40.277A1.6,1.6,0,0,1,363.668,150.66Z" transform="translate(-356.116 -150.206)" fill="#978ecb"/>
      </g>
      <g id="Group_480" data-name="Group 480" transform="translate(0)">
        <path id="Path_1508" data-name="Path 1508" d="M39.531,150.66,18.516,171.066a4.513,4.513,0,0,0,1.145,7.283l27.421,13.543-4.85-40.277A1.6,1.6,0,0,0,39.531,150.66Z" transform="translate(-17.147 -150.206)" fill="#978ecb"/>
      </g>
    </g>
    <path id="Path_1509" data-name="Path 1509" d="M207.608,141.1a13.6,13.6,0,0,0,13.6-13.6v-5.615l-1.133.564-4.532,2.255a17.818,17.818,0,0,1-15.876,0l-5.658-2.815-.007,0V127.5A13.6,13.6,0,0,0,207.608,141.1Z" transform="translate(-138.697 -95.582)" fill="#978ecb"/>
    <path id="Path_1510" data-name="Path 1510" d="M203.821,32.011,183.94,17.536V12.248a5.854,5.854,0,0,0,5.513-5.833V6a6.015,6.015,0,0,0-6.013-6H183.1a6.015,6.015,0,0,0-6.013,6,1.673,1.673,0,0,0,3.346,0A2.665,2.665,0,0,1,183.1,3.347h.345A2.665,2.665,0,0,1,186.107,6v.411a2.5,2.5,0,0,1-2.5,2.5,3.011,3.011,0,0,0-3.009,3.006v5.466L162.5,31a1.673,1.673,0,1,0,2.012,2.674l17.656-13.288,19.682,14.33a1.673,1.673,0,1,0,1.97-2.705Z" transform="translate(-113.467 0)" fill="#e19974"/>
    <path id="Path_1511" data-name="Path 1511" d="M172.447,131.646l3.346,33.525v36.422a4.462,4.462,0,0,1-4.462,4.462H119.365a4.462,4.462,0,0,1-4.462-4.462V131.677a4.462,4.462,0,0,1,2.818-4.147l14.251-5.653v5.615a13.6,13.6,0,1,0,27.206,0v-5.615l13.836,5.638c1.68.685-.566,2.318-.566,4.132Z" transform="translate(-76.663 -95.578)" fill="#aca6d6"/>
    <g id="Group_482" data-name="Group 482" transform="translate(38.387 29.947)">
      <path id="Path_1512" data-name="Path 1512" d="M173.546,140.773l-4.883-1.99a4.455,4.455,0,0,1,.971,2.775v28.58a45.83,45.83,0,0,1-45.83,45.83h-8.221a4.46,4.46,0,0,0,4.315,3.346h51.966a4.462,4.462,0,0,0,4.462-4.462V144.9A4.464,4.464,0,0,0,173.546,140.773Z" transform="translate(-115.582 -138.783)" fill="#978ecb"/>
    </g>
    <g id="Group_483" data-name="Group 483" transform="translate(51.461 57.662)">
      <path id="Path_1513" data-name="Path 1513" d="M194.036,277.3l-4.676,2.01a1.278,1.278,0,0,0-.716.8l-1.5,4.862a1.278,1.278,0,0,1-2.395.127l-2.01-4.676a1.278,1.278,0,0,0-.8-.716l-4.862-1.5a1.278,1.278,0,0,1-.127-2.395l4.676-2.01a1.279,1.279,0,0,0,.716-.8l1.5-4.862A1.278,1.278,0,0,1,186.24,268l2.01,4.676a1.278,1.278,0,0,0,.8.716l4.862,1.5A1.278,1.278,0,0,1,194.036,277.3Z" transform="translate(-176.176 -267.231)" fill="#fff"/>
      <path id="Path_1514" data-name="Path 1514" d="M261.094,392.422l-3.748,1.611a1.025,1.025,0,0,0-.574.638l-1.206,3.9a1.024,1.024,0,0,1-1.92.1l-1.611-3.748a1.025,1.025,0,0,0-.638-.574l-3.9-1.206a1.024,1.024,0,0,1-.1-1.92l3.748-1.611a1.024,1.024,0,0,0,.574-.638l1.206-3.9a1.024,1.024,0,0,1,1.92-.1l1.611,3.748a1.024,1.024,0,0,0,.638.574l3.9,1.206A1.025,1.025,0,0,1,261.094,392.422Z" transform="translate(-231.542 -359.082)" fill="#fff"/>
    </g>
  </g>
</svg>
