<svg xmlns="http://www.w3.org/2000/svg" xmlns:xlink="http://www.w3.org/1999/xlink" width="24" height="24" viewBox="0 0 24 24">
  <defs>
    <linearGradient id="linear-gradient" x1="0.774" y1="0.057" x2="0.257" y2="0.941" gradientUnits="objectBoundingBox">
      <stop offset="0" stop-color="red"/>
      <stop offset="0.176" stop-color="#ee00d6"/>
      <stop offset="0.381" stop-color="#7766f2"/>
      <stop offset="0.402" stop-color="#4898f7"/>
      <stop offset="0.54" stop-color="#00e5ff"/>
      <stop offset="0.703" stop-color="#00f18c"/>
      <stop offset="0.728" stop-color="#00ff08"/>
      <stop offset="0.812" stop-color="#f7ff05"/>
      <stop offset="0.879" stop-color="#faa403"/>
      <stop offset="1" stop-color="red"/>
    </linearGradient>
    <clipPath id="clip-path">
      <circle id="Ellipse_76" data-name="Ellipse 76" cx="12" cy="12" r="12" transform="translate(339.874 679)" fill="url(#linear-gradient)"/>
    </clipPath>
  </defs>
  <g id="All_Colors_Icon" data-name="All Colors Icon" transform="translate(-339.874 -679)">
    <g id="Mask_Group_1" data-name="Mask Group 1" clip-path="url(#clip-path)">
      <g id="color-wheel" transform="translate(339.874 679)">
        <path id="Path_778" data-name="Path 778" d="M0,12A12,12,0,1,1,12,24,12,12,0,0,1,0,12Zm12,7.176A7.176,7.176,0,1,0,4.824,12,7.176,7.176,0,0,0,12,19.176Zm0,0" fill="#83d9ff"/>
        <path id="Path_779" data-name="Path 779" d="M12,24V19.176a7.155,7.155,0,0,0,2.6-.484l1.651,4.535A11.973,11.973,0,0,1,12,24Zm0,0" fill="#3fefef"/>
        <path id="Path_780" data-name="Path 780" d="M14.6,18.692a7.181,7.181,0,0,0,2.231-1.383l3.1,3.7a12,12,0,0,1-3.683,2.22Zm0,0" fill="#1dd1d9"/>
        <path id="Path_781" data-name="Path 781" d="M16.828,17.309A7.209,7.209,0,0,0,18.4,15.25l4.181,2.414a12.043,12.043,0,0,1-2.651,3.342Zm0,0" fill="#17b5ba"/>
        <path id="Path_782" data-name="Path 782" d="M18.979,10.325l4.757-.839a12.1,12.1,0,0,1,.151,4.165l-4.757-.838A7.306,7.306,0,0,0,19.176,12a7.194,7.194,0,0,0-.2-1.675Zm0,0" fill="#9be058"/>
        <path id="Path_783" data-name="Path 783" d="M18.014,8.083,22.2,5.669a11.926,11.926,0,0,1,1.54,3.817l-4.757.839a7.142,7.142,0,0,0-.965-2.242Zm0,0" fill="#c0ff66"/>
        <path id="Path_784" data-name="Path 784" d="M16.39,6.324l3.1-3.7a12.064,12.064,0,0,1,2.7,3.043L18.014,8.083a7.224,7.224,0,0,0-1.624-1.76Zm0,0" fill="#ffdf46"/>
        <path id="Path_785" data-name="Path 785" d="M8.038.67A11.969,11.969,0,0,1,12,0V4.824a7.168,7.168,0,0,0-2.312.38Zm0,0" fill="#fc3e81"/>
        <path id="Path_786" data-name="Path 786" d="M4.507,2.626A11.977,11.977,0,0,1,8.038.67h0L9.688,5.2A7.146,7.146,0,0,0,7.61,6.324Zm0,0" fill="#f01054"/>
        <path id="Path_787" data-name="Path 787" d="M1.8,5.669a12.067,12.067,0,0,1,2.7-3.043l3.1,3.7a7.219,7.219,0,0,0-1.624,1.76Zm0,0" fill="#7884ea"/>
        <path id="Path_788" data-name="Path 788" d="M.113,13.651l4.757-.838A7.135,7.135,0,0,0,5.6,15.25L1.419,17.664A11.91,11.91,0,0,1,.113,13.651Zm0,0" fill="#1685fb"/>
        <path id="Path_789" data-name="Path 789" d="M1.419,17.664,5.6,15.25a7.213,7.213,0,0,0,1.572,2.059l-3.1,3.7a12.049,12.049,0,0,1-2.651-3.342Zm0,0" fill="#43a3f9"/>
        <path id="Path_790" data-name="Path 790" d="M4.069,21.006l3.1-3.7A7.177,7.177,0,0,0,9.4,18.692L7.752,23.226a12,12,0,0,1-3.683-2.22Zm0,0" fill="#64bdff"/>
        <path id="Path_791" data-name="Path 791" d="M.264,9.486A11.926,11.926,0,0,1,1.8,5.669L5.986,8.083a7.142,7.142,0,0,0-.965,2.242Zm0,0" fill="#4a5be5"/>
        <path id="Path_792" data-name="Path 792" d="M18.4,15.25a7.14,7.14,0,0,0,.731-2.437l4.757.838a11.91,11.91,0,0,1-1.306,4.013Zm0,0" fill="#1cc939"/>
        <path id="Path_793" data-name="Path 793" d="M0,12A12.009,12.009,0,0,1,.264,9.486l4.757.839A7.194,7.194,0,0,0,4.824,12a7.306,7.306,0,0,0,.045.813l-4.757.838A12.1,12.1,0,0,1,0,12Zm0,0" fill="#364ec6"/>
        <path id="Path_794" data-name="Path 794" d="M14.312,5.2,15.962.67a11.971,11.971,0,0,1,3.53,1.956l-3.1,3.7A7.152,7.152,0,0,0,14.312,5.2Zm0,0" fill="#f9b200"/>
        <path id="Path_795" data-name="Path 795" d="M12,4.824V0a11.973,11.973,0,0,1,3.962.67L14.312,5.2A7.166,7.166,0,0,0,12,4.824Zm0,0" fill="#fd6096"/>
      </g>
    </g>
  </g>
</svg>
